<svg width="180" height="180" viewBox="0 0 180 180" fill="none" xmlns="http://www.w3.org/2000/svg">
<g clip-path="url(#clip0_2200_78)">
<rect x="-553" y="-38" width="952" height="271" fill="url(#paint0_linear_2200_78)"/>
<path d="M-267.483 796.129C-35.2375 796.129 153.034 584.779 153.034 324.064C153.034 63.3504 -35.2375 -148 -267.483 -148C-499.728 -148 -688 63.3504 -688 324.064C-688 584.779 -499.728 796.129 -267.483 796.129Z" fill="url(#paint1_linear_2200_78)"/>
<path d="M31.4856 105.392C31.4856 115.504 39.6776 119.088 41.3416 119.6V119.984C39.9336 120.752 33.5336 124.592 33.5336 132.272C33.5336 140.336 40.4456 149.68 60.2856 149.68C80.5096 149.68 89.0856 139.696 89.0856 127.408C89.0856 116.016 79.1016 108.72 67.0696 108.72H51.7096C49.7896 108.72 47.6136 107.696 47.6136 105.264C47.6136 103.216 49.1496 101.808 51.8376 101.808H61.0536C74.6216 101.808 83.1976 91.824 83.1976 82.48C83.1976 74.032 78.3336 70.064 78.3336 70.064L85.7576 67.376C86.5256 66.992 87.1656 66.096 87.1656 65.2V59.952C87.1656 58.544 86.1416 57.52 84.7336 57.52H60.5416C48.1256 57.52 38.0136 67.76 38.0136 79.664C38.0136 87.472 41.7256 91.312 41.7256 91.312C41.7256 91.312 31.4856 95.28 31.4856 105.392ZM54.2696 80.816C54.2696 76.976 57.2136 74.16 61.0536 74.16C65.0216 74.16 67.8376 76.976 67.8376 80.816C67.8376 84.656 65.0216 87.472 61.0536 87.472C57.2136 87.472 54.2696 84.656 54.2696 80.816ZM51.0696 128.688C51.0696 124.976 55.6776 123.312 60.2856 123.312C67.1976 123.312 69.5016 126 69.5016 128.688C69.5016 132.144 66.6856 134.704 60.2856 134.704C54.1416 134.704 51.0696 132.272 51.0696 128.688ZM93.9296 110H109.162C110.058 110 110.826 109.488 111.21 108.976C113.386 105.904 116.842 101.424 119.402 97.84H119.786L127.594 108.848C127.978 109.36 128.618 110 129.514 110H145.002C147.05 110 148.074 107.824 146.922 106.16L130.666 83.76L146.794 62.64C148.074 60.976 147.05 58.8 144.874 58.8H129.13C127.85 58.8 127.338 59.312 127.082 59.824L119.786 70.32H119.402L112.234 59.824C111.978 59.312 111.21 58.8 110.186 58.8H94.4416C92.2656 58.8 91.2416 60.976 92.5216 62.64L108.65 83.888L92.0096 106.16C90.8576 107.824 91.7536 110 93.9296 110Z" fill="white"/>
</g>
<defs>
<linearGradient id="paint0_linear_2200_78" x1="-553" y1="97.5" x2="399" y2="97.5" gradientUnits="userSpaceOnUse">
<stop stop-color="#011A38"/>
<stop offset="1" stop-color="#016EEE"/>
</linearGradient>
<linearGradient id="paint1_linear_2200_78" x1="78.7256" y1="-91.6124" x2="-1498.37" y2="787.949" gradientUnits="userSpaceOnUse">
<stop stop-color="#0076FF"/>
<stop offset="0.72334" stop-color="#00234D"/>
</linearGradient>
<clipPath id="clip0_2200_78">
<rect width="180" height="180" rx="36" fill="white"/>
</clipPath>
</defs>
</svg>
